# xmcd
#
# Track frame offsets: 
#        150
#        11430
#        22804
#        39480
#        58630
#        76656
#        94949
#        105083
#        121610
#        140223
#        152335
#        171524
#        183778
#        196316
#        212123
#        227883
#        248949
#        257794
#        278756
#        295675
#
# Disc length: 4057 seconds
#
# Revision: 3
# Processed by: cddbd v1.5.2PL0 Copyright (c) Steve Scherf et al.
# Submitted via: ExactAudioCopy v0.99pb5
#
DISCID=030fd714
DTITLE=Various Artist - Pop Masters - Volume 4 - CD 2
DYEAR=2008
DGENRE=Pop
TTITLE0=Graham Bonney - Super girl
TTITLE1=Pussycat - Georgie
TTITLE2=Rocky Burnette - Tired of toein' the line
TTITLE3=Bobbie Gentry - Ode to Billie Joe
TTITLE4=Andru Donalds - Mishale
TTITLE5=Hollies - The air that I breathe
TTITLE6=Ral Donner and The Starfires - Girl of my best friend
TTITLE7=Adria Gurvitz - Classic
TTITLE8=Hollies - Sandy
TTITLE9=Glen Campbell - By the time I get Phoenix
TTITLE10=T'Pau - Heart and soul
TTITLE11=Sandie Shaw - Always
TTITLE12=Vikki Carr - It must be him
TTITLE13=Peabo Bryson and Roberta Flack - Tonight, I celebrate my love
TTITLE14=Paul Carrack - When you walk in the room
TTITLE15=Bobby Goldsboro - Summer (the first time)
TTITLE16=Crickets - My little girl
TTITLE17=Billy Idol - Cradle of love
TTITLE18=Hot Chocolate - You sexy thing
TTITLE19=Eddie Cochran - C'mon everybody
EXTD=
EXTT0=
EXTT1=
EXTT2=
EXTT3=
EXTT4=
EXTT5=
EXTT6=
EXTT7=
EXTT8=
EXTT9=
EXTT10=
EXTT11=
EXTT12=
EXTT13=
EXTT14=
EXTT15=
EXTT16=
EXTT17=
EXTT18=
EXTT19=
PLAYORDER=
